<svg xmlns="http://www.w3.org/2000/svg" width="20" height="16.545" viewBox="0 0 20 16.545">
  <g id="icons8_rules" transform="translate(-0.5 -2.5)">
    <path id="Path_8301" data-name="Path 8301" d="M16.955,16.818V5.591A2.591,2.591,0,0,0,14.364,3H6.591A2.591,2.591,0,0,0,4,5.591V15.955a2.591,2.591,0,0,0,2.591,2.591H18.682A1.727,1.727,0,0,1,16.955,16.818Z" transform="translate(-0.409)" fill="none" stroke="#fff" stroke-width="1"/>
    <path id="Path_8302" data-name="Path 8302" d="M11.364,5.591v.864A1.727,1.727,0,0,1,9.636,8.182H2.727A1.727,1.727,0,0,1,1,6.455V5.591A2.591,2.591,0,0,1,3.591,3H13.955A2.591,2.591,0,0,0,11.364,5.591Z" fill="none" stroke="#fff" stroke-width="1"/>
    <path id="Path_8303" data-name="Path 8303" d="M20.727,16H19v2.591a1.727,1.727,0,0,0,1.727,1.727h0a1.727,1.727,0,0,0,1.727-1.727v-.864A1.727,1.727,0,0,0,20.727,16Z" transform="translate(-2.455 -1.773)" fill="none" stroke="#fff" stroke-width="1"/>
    <path id="Path_8304" data-name="Path 8304" d="M13.045,12.727H7.864a.864.864,0,1,1,0-1.727h5.182a.864.864,0,1,1,0,1.727Z" transform="translate(-0.818 -1.091)" fill="none" stroke="#fff" stroke-width="1"/>
    <path id="Path_8305" data-name="Path 8305" d="M11.318,16.727H7.864a.864.864,0,1,1,0-1.727h3.455a.864.864,0,1,1,0,1.727Z" transform="translate(-0.818 -1.636)" fill="none" stroke="#fff" stroke-width="1"/>
  </g>
</svg>
